<svg xmlns="http://www.w3.org/2000/svg" xmlns:xlink="http://www.w3.org/1999/xlink" xml:space="preserve" version="1.1" style="shape-rendering:geometricPrecision;text-rendering:geometricPrecision;image-rendering:optimizeQuality;" viewBox="0 0 60000 75000" x="0px" y="0px" fill-rule="evenodd" clip-rule="evenodd"><defs><style type="text/css">
   
    .fil0 {fill:black;fill-rule:nonzero}
   
  </style></defs><g><path class="fil0" d="M27619 45876c-219,-25 -377,-223 -352,-442 25,-219 223,-377 442,-352 375,43 1506,57 2379,68 548,7 999,12 1116,22 305,25 589,1 863,-52 283,-54 565,-140 849,-233 370,-121 1023,-673 1777,-1309 1120,-946 2448,-2066 3668,-2437 126,-38 606,-106 1027,-140 187,-15 370,-24 521,-22l12 -986c-2136,125 -4296,427 -6473,1326 -155,64 -309,94 -456,94 -235,0 -457,-74 -644,-205 -182,-127 -328,-308 -418,-526 -64,-155 -100,-326 -100,-507 0,-16 1,-32 3,-47l61 -1629 -62 -1663 0 -14 -1 0c0,-181 36,-352 100,-507 90,-217 236,-398 418,-526 187,-131 409,-205 644,-205 147,0 301,30 456,94 1815,750 3619,1084 5406,1247 123,-1190 498,-1756 991,-2039l1287 -23011c-997,-136 -1853,-360 -2473,-641 -736,-334 -1178,-773 -1209,-1285 -390,-1346 -1363,-2434 -2334,-3519 -330,-369 -660,-738 -943,-1084l1 -1c-57,-70 -91,-159 -90,-255 2,-220 182,-397 402,-395l1523 12c126,-6 254,48 336,156l921 1203c91,88 198,162 316,220 78,39 160,71 245,96 -16,-60 -32,-120 -48,-179 -57,-204 -121,-400 -189,-587 -578,-1570 -1512,-2401 -2464,-2687 -450,-135 -904,-150 -1323,-65 -417,85 -801,269 -1116,531 -548,457 -880,1158 -792,1992 167,1591 1057,3454 1947,5317 1178,2467 2355,4934 1980,6997 -133,729 -365,1460 -603,2211 -771,2429 -1613,5082 1056,8148 84,88 127,213 105,342 -36,217 -242,364 -459,328 -535,-89 -1057,-289 -1549,-617 -255,-170 -502,-375 -738,-616l-155 672c-49,215 -263,349 -478,300 -51,-12 -98,-33 -139,-61l-1190 -793c-137,-91 -200,-251 -173,-403l491 -2899 -870 801c-162,149 -415,139 -564,-23 -11,-12 -21,-25 -31,-38l0 0 -540 -754c-100,-139 -97,-320 -8,-454l1913 -3367 -1416 1272c-164,148 -417,134 -564,-30 -18,-21 -34,-42 -48,-65l-544 -869c-87,-140 -77,-312 11,-439l0 0 2702 -3890 -1378 638c-200,92 -437,5 -530,-195 -10,-22 -18,-45 -24,-68l-247 -841c-36,-121 -11,-246 56,-342l0 0 1133 -1611 -194 120c-24,15 -49,27 -74,36 -215,89 -416,108 -591,75 -184,-35 -337,-124 -450,-250 -110,-122 -180,-277 -204,-447 -26,-188 7,-397 109,-599 290,-567 1016,-1247 1485,-1686 180,-169 279,-192 295,-241 32,-100 38,-202 15,-286 -8,-28 -18,-51 -31,-66 -6,-7 -14,-13 -24,-16 -34,-11 -87,-8 -165,13 -79,21 -140,103 -219,208 -40,54 -84,112 -139,179l-5 7c-360,433 -960,1154 -1714,630 -712,-494 -289,-1514 -30,-2141 10,-25 20,-47 65,-162 119,-301 231,-528 323,-715 237,-481 306,-621 -29,-1870 -33,-125 -88,-298 -152,-502 -312,-991 -843,-2683 -551,-3723 165,-587 482,-834 866,-910 328,-65 656,21 968,108 607,170 820,-150 1037,-474 291,-436 585,-877 1326,-909 1207,-51 2298,352 3193,1128 875,759 1557,1872 1967,3260 78,170 152,349 222,537 75,203 144,418 208,647 39,138 75,283 110,434l6 -1c213,-31 414,-86 552,-162 339,-189 334,-367 234,-546 -62,-112 -159,-245 -256,-379l-9 -13c-139,-191 -270,-394 -371,-614 -109,-237 -177,-486 -177,-750 1,-284 75,-566 259,-809 156,-206 384,-378 705,-491l0 1c6,-2 11,-4 17,-6 371,-114 706,-127 997,-51 327,85 588,275 778,556 195,289 277,597 298,913 19,284 -16,569 -59,850 -10,63 -15,122 -16,177 -3,174 39,316 113,433l1367 -4026c71,-209 297,-321 506,-250 126,43 216,142 253,259l1275 4072c98,-126 156,-286 153,-489 -1,-55 -6,-114 -16,-177 -44,-282 -78,-567 -59,-850 21,-316 103,-624 298,-913 189,-281 451,-471 778,-556 284,-74 610,-64 970,43 15,3 29,8 44,13 320,113 549,285 705,491 184,243 259,524 259,809 1,264 -68,514 -177,750 -101,220 -232,423 -371,614l-9 13c-98,135 -194,268 -256,379 -100,179 -104,357 234,546 63,35 139,66 224,91 30,-125 61,-246 93,-362 64,-228 133,-444 208,-647 69,-188 143,-367 222,-537 410,-1387 1092,-2501 1967,-3260 895,-776 1987,-1180 3193,-1128 741,32 1035,473 1326,909 216,324 429,643 1037,474 312,-87 640,-173 968,-108 384,76 701,323 866,910 292,1040 -240,2732 -551,3723 -64,205 -119,377 -152,502 -335,1249 -266,1389 -29,1870 92,187 204,414 323,715 45,115 55,137 65,162 259,626 682,1647 -30,2141 -754,524 -1354,-197 -1714,-630l-5 -7c-56,-67 -99,-125 -139,-179 -79,-105 -139,-186 -219,-208 -77,-21 -131,-24 -165,-13 -10,3 -18,9 -24,16 -13,15 -23,38 -31,66 -23,84 -17,186 15,286 16,50 115,73 295,241 469,439 1195,1119 1485,1686 103,201 136,410 109,599 -24,170 -94,325 -204,447 -114,126 -266,215 -450,250 -175,33 -376,14 -591,-75 -25,-9 -50,-21 -74,-36l-194 -120 1133 1611 0 0c67,96 92,221 56,342l-247 841c-6,23 -14,46 -24,68 -92,200 -329,288 -530,195l-1378 -638 2702 3890 0 0c88,127 98,299 11,439l-544 869c-13,23 -29,45 -48,65 -148,164 -400,177 -564,30l-1416 -1272 1913 3367c89,134 92,315 -8,454l-540 754 0 0c-9,13 -20,26 -31,38 -149,162 -402,173 -564,23l-870 -801 491 2899c27,152 -36,312 -173,403l-1190 793c-41,28 -88,50 -139,61 -215,49 -429,-85 -478,-300l-155 -672c-236,242 -483,446 -738,616 -492,328 -1014,528 -1549,617 -217,36 -423,-111 -459,-328 -22,-129 21,-254 105,-342 2670,-3066 1827,-5719 1056,-8148 -238,-751 -471,-1482 -603,-2211 -375,-2063 802,-4530 1980,-6997 890,-1863 1779,-3727 1947,-5317 88,-834 -245,-1535 -792,-1992 -314,-262 -699,-446 -1116,-531 -419,-85 -873,-71 -1323,65 -951,286 -1886,1117 -2464,2687 -69,187 -132,383 -189,587 -22,80 -44,160 -64,242 66,-3 128,-10 184,-20 151,-27 296,-73 427,-139 118,-59 225,-133 316,-220l921 -1203 1 0c72,-94 186,-156 314,-157l1513 -12c100,-9 204,20 288,89 171,140 196,392 56,563 -283,346 -613,715 -943,1084 -983,1098 -1967,2199 -2348,3567 -13,47 -34,89 -60,126 -113,448 -551,834 -1229,1132 -668,294 -1599,522 -2680,651l615 23060c427,303 748,863 862,1934 1702,-171 3420,-509 5148,-1222 155,-64 309,-94 456,-94 235,0 457,74 644,205 182,127 328,308 418,526 64,155 100,326 100,507 0,16 -1,32 -3,47l-61 1629 62 1663 0 14 1 0c0,181 -36,352 -100,507 -90,217 -236,398 -418,526 -187,131 -409,205 -644,205 -147,0 -301,-30 -456,-94 -2248,-929 -4477,-1220 -6680,-1338l-26 2503c1243,4 2486,8 3729,13l20 3c429,64 749,233 971,461 266,274 382,624 368,979 -16,391 -193,788 -504,1089 -15,15 -31,29 -47,43 152,131 272,291 361,468 132,263 194,564 189,862 -6,298 -79,596 -216,852 -200,373 -531,662 -988,754 -22,4 -44,7 -66,8l0 0 -354 11c10,18 20,36 29,55 132,263 194,564 189,862 -6,298 -79,596 -216,852 -200,373 -531,662 -988,754 -22,4 -44,7 -66,8l0 0 -1524 49c0,19 -2,38 -4,57 -45,295 -265,748 -587,1110 -258,290 -591,537 -971,628 -153,37 -317,68 -489,95l0 1625c0,11 -1,23 -1,34 176,114 340,246 488,394 534,534 864,1271 864,2086 0,814 -330,1552 -864,2086 -534,534 -1271,864 -2086,864 -814,0 -1552,-330 -2086,-864 -534,-534 -864,-1271 -864,-2086 0,-814 330,-1552 864,-2086 141,-141 297,-268 464,-379 -2,-16 -3,-33 -3,-49l0 -1509c-953,-35 -1843,-106 -2456,-156 -164,-13 -310,-25 -402,-32 -582,-43 -1281,-108 -1986,-172 -1832,-168 -3697,-339 -5102,-246 -462,31 -1687,136 -2757,252 -699,76 -1326,156 -1615,221 -215,48 -428,-87 -477,-302 -48,-215 87,-428 302,-477 327,-74 984,-158 1706,-237 1083,-118 2324,-224 2791,-255 1456,-97 3358,78 5224,249 640,59 1276,117 1973,169 137,10 263,20 406,32 681,55 1713,138 2778,166 5,0 11,0 16,0 12,0 24,1 36,2 1126,28 2282,-6 3092,-201 200,-48 395,-200 558,-384 186,-209 319,-441 372,-609l-2357 76c-220,7 -404,-166 -411,-386 -7,-220 166,-404 386,-411l4661 -150c185,-47 324,-176 412,-341 78,-145 119,-317 122,-490 3,-173 -31,-344 -104,-490 -87,-174 -236,-310 -447,-360 -18,-4 -35,-10 -52,-16l-3160 101c-220,7 -404,-166 -411,-386 -7,-220 166,-404 386,-411l4661 -150c185,-47 324,-176 412,-341 78,-145 119,-317 122,-490 3,-173 -31,-344 -104,-490 -87,-174 -236,-310 -447,-360 -34,-8 -66,-20 -95,-35 -53,10 -108,18 -164,23l-30 2 -3969 100c-220,5 -403,-169 -408,-389 -5,-220 169,-403 389,-408l3949 -100c260,-28 469,-134 619,-279 161,-156 253,-354 260,-545 6,-145 -39,-285 -143,-392 -102,-106 -264,-187 -495,-224 -2395,-8 -4791,-25 -7186,-25 -564,-24 -1029,-124 -1372,-375 -333,-244 -532,-600 -568,-1119 -104,-1 -273,9 -457,23 -380,31 -779,81 -859,105 -1059,322 -2320,1386 -3383,2284 -818,690 -1527,1289 -2046,1459 -308,101 -618,195 -949,258 -340,65 -693,95 -1072,64 -126,-10 -549,-16 -1063,-22 -899,-11 -2065,-26 -2460,-71zm6127 -19479c327,450 683,795 1059,1048 -1889,-2913 -1088,-5437 -348,-7770 230,-726 455,-1432 578,-2111 329,-1807 -794,-4160 -1918,-6513 -918,-1923 -1836,-3845 -2018,-5580 -118,-1122 332,-2067 1074,-2686 414,-346 920,-588 1469,-700 546,-111 1133,-93 1711,80 166,50 332,113 496,189 -72,-71 -146,-140 -221,-205 -741,-642 -1644,-977 -2640,-934 -334,14 -515,286 -695,555 -377,566 -749,1123 -1912,799 -220,-61 -449,-122 -602,-92 -97,19 -186,109 -251,341 -228,812 259,2362 545,3270 68,217 126,399 162,534 412,1538 313,1739 -27,2430 -81,165 -180,366 -295,656 -6,14 -31,75 -71,171 -166,401 -437,1055 -255,1181 156,108 464,-261 649,-483l5 -7c40,-48 78,-99 114,-147 173,-231 306,-408 650,-501 233,-63 439,-57 615,0 158,51 287,140 387,257 93,109 158,238 196,379 62,228 51,491 -27,736 -46,144 -241,327 -510,579 -428,401 -1092,1022 -1319,1467 -24,48 -33,92 -28,127 1,11 4,18 7,22 0,1 1,-1 3,0 28,5 68,-1 122,-21l1831 -1138c132,-83 307,-84 443,11 180,127 224,376 97,556l-2150 3058 66 225 2275 -1053c128,-67 287,-62 414,26 181,126 226,375 100,556l-3391 4883 158 252 2890 -2595 0 0c124,-112 311,-137 464,-50 192,109 259,352 150,544l-3013 5303 129 180 1396 -1285c87,-80 210,-121 336,-100 217,36 364,242 328,459l-643 3798 502 334 201 -874c18,-96 72,-186 158,-248 179,-129 428,-90 558,89zm-5662 24228c-138,4 -253,-104 -257,-241 -4,-138 104,-253 241,-257l2275 -79c138,-4 253,104 257,241 4,138 -104,253 -241,257l-2275 79zm-3764 -7871c682,778 1013,1763 1055,2768 34,836 -134,1686 -469,2441 -339,763 -850,1429 -1499,1887 -170,120 -348,225 -535,314 137,484 203,937 211,1360 23,1186 -417,2114 -1075,2816 -642,685 -1492,1146 -2315,1415 -573,187 -1139,282 -1617,296 -2285,341 -4218,-514 -5497,-1943 -674,-752 -1164,-1663 -1428,-2641 -264,-979 -301,-2027 -67,-3055 36,-159 79,-318 128,-476 -2583,-526 -3934,-2334 -4312,-4401 -60,-329 -95,-664 -107,-1002 -1341,-28 -2463,-769 -3273,-1865 -555,-750 -962,-1667 -1187,-2629 -226,-962 -272,-1973 -106,-2913 256,-1451 1013,-2734 2387,-3421 -99,-338 -152,-696 -152,-1068 0,-1288 491,-2456 1286,-3303 800,-854 1907,-1381 3131,-1381 318,0 628,26 931,77 1316,219 2404,895 3163,1832 371,458 664,978 866,1537 348,-946 846,-1784 1450,-2482 709,-820 1564,-1448 2491,-1835 937,-390 1947,-535 2958,-386 1032,153 2062,612 3009,1431 704,609 1187,1479 1384,2583 1,5 2,10 2,16 161,914 126,1992 -144,3214 695,258 1321,640 1846,1114 1030,932 1667,2221 1667,3646 0,1862 -833,3546 -2179,4764 -581,525 -1257,964 -2003,1291zm-6264 12499c402,-11 889,-94 1391,-258 710,-232 1439,-625 1980,-1203 526,-561 878,-1305 859,-2256 -6,-341 -61,-712 -171,-1114 -476,102 -992,104 -1540,-16 -216,-47 -353,-259 -306,-475 47,-216 259,-353 475,-306 853,187 1602,-4 2203,-428 528,-372 948,-923 1230,-1559 286,-644 430,-1370 400,-2084 -38,-931 -372,-1837 -1071,-2495 -750,234 -1554,360 -2390,360 -357,0 -704,-26 -1041,-76 -2314,-343 -4028,-1810 -5160,-3763 -460,-794 -823,-1668 -1091,-2579 -1953,-741 -3563,-168 -4650,1010 -623,675 -1081,1547 -1341,2486 -261,943 -321,1950 -148,2894 330,1801 1524,3371 3820,3788 707,-1528 2092,-2911 4316,-3811 205,-83 437,16 520,220 83,205 -16,437 -220,520 -2537,1027 -3858,2718 -4259,4478 -204,897 -171,1814 61,2673 232,860 661,1658 1249,2316 1113,1243 2800,1984 4800,1681 28,-4 55,-5 82,-4zm22664 -15300l-20 1622c-4,344 84,555 248,675 197,144 519,204 931,222l2705 9 26 -2536c-550,-21 -1098,-34 -1644,-48l-198 -5 -198 5c-614,15 -1231,30 -1850,56zm2697 13844l0 -1208c-516,39 -1071,51 -1624,45l0 1171c262,-76 538,-117 825,-117 277,0 545,38 799,110zm8324 -26353c376,-252 732,-597 1059,-1048 129,-179 379,-219 558,-89 86,62 140,152 158,248l201 874 502 -334 -643 -3798c-36,-217 111,-423 328,-459 126,-21 248,20 336,100l1396 1285 129 -180 -3013 -5303c-109,-192 -42,-435 150,-544 153,-87 340,-61 464,50l0 0 2890 2595 158 -252 -3391 -4883c-126,-181 -81,-430 100,-556 127,-88 286,-93 414,-26l2275 1053 66 -225 -2150 -3058c-127,-180 -83,-429 97,-556 136,-96 311,-95 443,-11l1831 1138c53,20 93,26 122,21 3,-1 3,1 3,0 3,-3 6,-11 7,-22 5,-35 -4,-79 -28,-127 -227,-445 -891,-1066 -1319,-1467 -269,-252 -464,-435 -510,-579 -78,-244 -89,-508 -27,-736 38,-140 103,-270 196,-379 100,-116 228,-206 387,-257 176,-57 382,-63 615,0 344,93 477,271 650,501 36,48 75,100 114,147l5 7c185,222 492,592 649,483 182,-126 -89,-780 -255,-1181 -40,-96 -65,-157 -71,-171 -115,-290 -213,-490 -295,-656 -341,-691 -439,-892 -27,-2430 36,-134 93,-317 162,-534 285,-908 773,-2459 545,-3270 -65,-232 -153,-322 -251,-341 -153,-30 -382,31 -602,92 -1162,324 -1534,-233 -1912,-799 -180,-269 -361,-541 -695,-555 -996,-42 -1899,292 -2640,934 -75,65 -149,134 -221,205 164,-76 330,-139 496,-189 578,-174 1164,-192 1711,-80 548,112 1054,354 1469,700 741,619 1192,1564 1074,2686 -183,1734 -1100,3657 -2018,5580 -1123,2353 -2246,4706 -1918,6513 124,680 348,1386 578,2111 741,2333 1542,4857 -348,7770zm-9319 -21470c132,39 271,69 409,90 217,34 432,48 618,51 187,-3 401,-17 618,-51 118,-18 237,-42 352,-74l-961 -3068 -1036 3052zm3020 5132c970,-120 1795,-324 2379,-581 491,-216 780,-437 780,-633 0,-283 -516,-585 -1350,-844 -526,-163 -1162,-293 -1874,-378l65 2436zm-864 -2510c-371,-25 -757,-38 -1152,-38 -453,0 -891,17 -1310,49l-1455 26022c184,-28 374,-44 564,-61 67,-6 134,-12 199,-18l1097 -3033c39,-107 123,-197 239,-239 207,-75 436,32 511,239l1106 3033c65,6 133,12 200,18 236,21 472,41 698,83l-695 -26056zm-3267 94c-646,84 -1226,207 -1711,357 -834,259 -1350,561 -1350,844 0,190 273,404 738,615 540,244 1296,442 2190,568l133 -2385zm-3365 298c332,-277 817,-516 1419,-703 1046,-325 2482,-526 4060,-526 1578,0 3014,201 4060,526 623,194 1121,442 1453,732 517,-1182 1383,-2151 2248,-3117 119,-133 237,-265 356,-400l-474 4 -824 1076c-11,14 -23,28 -35,40l1 1c-155,155 -338,284 -538,383 -201,100 -420,171 -646,211 -258,45 -588,44 -904,-2 -301,-44 -599,-129 -827,-256 -913,-509 -863,-1057 -544,-1630 92,-165 198,-312 306,-461l9 -13c115,-159 221,-320 293,-477 64,-140 105,-281 105,-419 0,-119 -29,-234 -100,-327 -65,-86 -172,-163 -333,-219l-7 -2c-215,-63 -397,-72 -542,-34 -129,34 -235,113 -315,231 -106,158 -152,333 -164,516 -14,216 14,448 50,679 15,99 24,195 25,286 10,604 -255,1021 -651,1307 -99,72 -207,134 -319,188 -18,10 -37,19 -57,26 -273,122 -572,198 -864,243 -260,40 -515,57 -734,60l-13 0c-219,-4 -473,-20 -734,-60 -434,-67 -887,-202 -1240,-458 -396,-286 -661,-703 -651,-1307 2,-92 10,-187 25,-286 36,-231 64,-462 50,-679 -12,-184 -58,-359 -164,-516 -80,-118 -186,-197 -315,-231 -147,-38 -331,-28 -549,36l0 0c-161,57 -268,133 -333,219 -71,94 -100,208 -100,327 0,138 40,279 105,419 72,156 178,318 293,477l9 13c108,149 215,296 306,461 319,573 370,1122 -544,1630 -228,127 -526,213 -827,256 -316,46 -646,47 -904,2 -227,-40 -445,-111 -646,-211 -201,-100 -383,-228 -538,-383 -19,-19 -36,-40 -51,-62l-807 -1055 -474 -4c119,135 238,267 356,400 858,959 1717,1919 2235,3088zm5348 19736c-3,138 -116,247 -254,244 -138,-3 -247,-116 -244,-254l352 -17870c3,-138 116,-247 254,-244 138,3 247,116 244,254l-352 17870zm3443 8998c-44,19 -92,31 -142,33 -40,2 -78,-2 -115,-11 -1174,96 -2338,124 -3493,153 -69,2 -139,3 -208,5 -6,0 -12,0 -19,0l-208 -5c-1111,-27 -2230,-55 -3358,-142l0 0c-1984,-153 -3996,-492 -6047,-1339 -51,-21 -103,-31 -153,-31 -70,0 -135,21 -188,58 -58,41 -106,101 -137,176 -24,58 -37,126 -37,203l-1 0c21,554 44,1109 62,1663 0,9 0,19 0,28l-62 1645c0,6 0,11 0,17 0,77 13,146 37,203 31,75 78,135 137,176 53,37 118,58 188,58 50,0 101,-10 153,-31 3217,-1329 6340,-1406 9405,-1481 69,-2 139,-3 208,-5 6,0 12,0 19,0l208 5c3066,75 6188,152 9405,1481 51,21 103,31 153,31 70,0 135,-21 188,-58 58,-41 106,-101 137,-176 24,-58 37,-126 37,-203l1 0c-21,-554 -44,-1109 -62,-1663 0,-9 0,-19 0,-28l62 -1645c0,-6 0,-11 0,-17 0,-77 -13,-146 -37,-203 -31,-75 -78,-135 -137,-176 -53,-37 -118,-58 -188,-58 -50,0 -101,10 -153,31 -1916,791 -3798,1139 -5654,1306zm-593 -752c-181,-1477 -903,-1540 -1637,-1604 -143,-12 -286,-25 -444,-47l-2326 0c-158,22 -302,34 -444,47 -737,64 -1462,128 -1639,1622 978,64 1951,88 2918,112l198 5 198 -5c1052,-26 2111,-52 3176,-130zm-3248 -4148l-613 1697 1232 0 -619 -1697zm714 23814c0,-138 112,-250 250,-250 138,0 250,112 250,250 0,412 -167,785 -437,1055 -270,270 -643,437 -1055,437 -138,0 -250,-112 -250,-250 0,-138 112,-250 250,-250 274,0 522,-111 701,-290 179,-179 290,-427 290,-701zm528 -1520c-389,-389 -926,-630 -1520,-630 -594,0 -1131,241 -1520,630 -389,389 -630,926 -630,1520 0,594 241,1131 630,1520 389,389 926,630 1520,630 594,0 1131,-241 1520,-630 389,-389 630,-926 630,-1520 0,-594 -241,-1131 -630,-1520zm-24786 -28288c-135,25 -265,-65 -290,-200 -25,-135 65,-265 200,-290 632,-116 1375,44 2033,358 690,330 1299,835 1596,1375 66,121 22,273 -99,339 -121,66 -273,22 -339,-99 -247,-447 -771,-876 -1374,-1164 -572,-273 -1206,-415 -1728,-319zm-6469 22695c-8,-138 98,-255 235,-263 138,-8 255,98 263,235 58,1039 387,1921 894,2597 533,711 1264,1195 2080,1395 134,32 216,167 184,301 -32,134 -167,216 -301,184 -929,-227 -1758,-776 -2362,-1580 -564,-752 -930,-1726 -994,-2868zm-7962 -17080c-1089,571 -1695,1625 -1906,2820 -147,833 -105,1734 97,2595 202,860 562,1675 1050,2335 668,903 1579,1516 2650,1542 37,-490 123,-978 253,-1451 293,-1059 812,-2045 1522,-2814 1200,-1300 2924,-1986 5001,-1389 -222,-1008 -332,-2041 -332,-3044 0,-556 34,-1106 102,-1638 2,-52 3,-104 3,-156 0,-1072 -364,-2087 -1006,-2879 -641,-791 -1561,-1362 -2676,-1547 -253,-42 -520,-64 -799,-64 -995,0 -1896,431 -2550,1128 -659,703 -1067,1678 -1067,2756 0,783 295,1489 773,1999 472,503 1122,815 1840,815 717,0 1368,-311 1840,-815 478,-509 773,-1216 773,-1999 0,-487 -183,-926 -479,-1241 -290,-309 -690,-501 -1130,-501 -440,0 -839,191 -1130,501 -296,316 -479,754 -479,1241 0,221 -179,400 -400,400 -221,0 -400,-179 -400,-400 0,-696 267,-1328 698,-1788 437,-466 1042,-754 1711,-754 669,0 1274,288 1711,754 431,460 698,1092 698,1788 0,992 -379,1892 -992,2546 -619,660 -1474,1068 -2421,1068 -947,0 -1802,-408 -2421,-1068 -207,-220 -386,-469 -534,-739zm10293 -12427c138,172 111,423 -61,561 -172,138 -423,111 -561,-61 -176,-218 -418,-349 -667,-385 -242,-35 -490,19 -686,172 -5,4 -11,8 -16,12 -183,149 -287,364 -306,591 -20,239 50,492 216,705 21,28 -3,-2 12,16 296,367 706,589 1128,651 415,61 841,-34 1180,-298 27,-21 1,0 17,-13 340,-274 579,-756 663,-1266 83,-501 12,-1016 -263,-1370 -21,-27 2,0 -12,-16 -404,-500 -1024,-798 -1681,-896 -699,-104 -1430,18 -1980,362 -534,334 -886,878 -1062,1513 -185,668 -176,1435 19,2174 195,738 577,1441 1137,1982 599,579 1407,974 2416,1027 220,11 389,199 378,419 -11,220 -199,389 -419,378 -1220,-64 -2199,-544 -2928,-1249 -670,-647 -1124,-1482 -1355,-2354 -231,-871 -239,-1785 -16,-2589 227,-822 694,-1532 1409,-1979 711,-445 1639,-605 2517,-474 843,126 1649,519 2187,1186 25,30 11,13 21,26 421,541 535,1285 419,1989 -114,694 -457,1361 -951,1760 -31,25 -15,13 -27,22 -518,403 -1162,549 -1783,458 -615,-90 -1209,-411 -1637,-941 -25,-31 -10,-12 -21,-25 -294,-378 -419,-831 -382,-1261 38,-440 243,-857 606,-1150 7,-6 14,-13 22,-19 375,-292 840,-397 1290,-332 442,64 869,295 1176,676zm-1056 11441c-9,222 -31,447 -68,674 -21,297 -32,599 -32,905 0,1176 159,2393 480,3551 2,5 3,11 5,16 254,913 609,1788 1065,2575 1017,1754 2542,3070 4585,3373 295,44 604,66 926,66 1828,0 3479,-667 4672,-1746 1182,-1069 1913,-2545 1913,-4173 0,-1192 -536,-2272 -1402,-3056 -526,-476 -1173,-842 -1898,-1060l-4 -1c-482,-144 -998,-222 -1535,-222 -1346,0 -2561,490 -3437,1283 -866,783 -1402,1864 -1402,3056 0,756 340,1441 890,1939 561,507 1339,821 2202,821 221,0 400,179 400,400 0,221 -179,400 -400,400 -1065,0 -2033,-394 -2737,-1030 -714,-646 -1156,-1540 -1156,-2529 0,-1425 637,-2715 1667,-3646 1020,-922 2424,-1493 3972,-1493 468,0 923,52 1358,150 235,-1092 266,-2046 125,-2849l-2 -12c-164,-918 -554,-1632 -1119,-2120 -825,-713 -1714,-1112 -2602,-1244 -865,-128 -1731,-3 -2536,333 -814,339 -1567,894 -2194,1619 -860,995 -1483,2311 -1710,3840 -9,60 -17,119 -25,180z"/></g><text x="0" y="60015" fill="#000000" font-size="5px" font-weight="bold" font-family="'Helvetica Neue', Helvetica, Arial-Unicode, Arial, Sans-serif">Created by Olena Panasovska</text><text x="0" y="60020" fill="#000000" font-size="5px" font-weight="bold" font-family="'Helvetica Neue', Helvetica, Arial-Unicode, Arial, Sans-serif">from the Noun Project</text></svg>