<?xml version="1.0" encoding="utf-8"?><svg version="1.1" id="Layer_1" xmlns="http://www.w3.org/2000/svg" xmlns:xlink="http://www.w3.org/1999/xlink" x="0px" y="0px" viewBox="0 0 122.88 105.44" style="enable-background:new 0 0 122.88 105.44" xml:space="preserve"><g><path d="M4.85,12.96L53.22,0l-0.06,3.12l-3.27,0.88L14.98,64.46l3.29,12.26l34.63-59.98l-0.12,6.2L19.36,80.81l3.28,12.26 L52.4,41.52l-0.12,6.2L24.21,96.35c-0.14,0.23-0.32,0.42-0.54,0.54l0.78,2.93c0.25,0.94,0.87,1.69,1.65,2.14 c0.78,0.45,1.74,0.61,2.68,0.36l2.99-0.8c0.01-0.23,0.07-0.47,0.2-0.69L51.92,66.3l-0.12,6.2l-16.15,27.98L47.9,97.2l3.53-6.12 l-0.16,8.32l-21.71,5.81c-1.74,0.47-3.51,0.18-4.96-0.66c-1.45-0.84-2.58-2.23-3.05-3.97L0.22,20.97 c-0.47-1.74-0.18-3.51,0.66-4.96C1.72,14.56,3.11,13.43,4.85,12.96L4.85,12.96z M64.69,4.65h51.66c1.8,0,3.43,0.74,4.62,1.92 c1.18,1.18,1.92,2.82,1.92,4.62v82.43c0,1.8-0.74,3.43-1.92,4.62c-1.18,1.18-2.82,1.92-4.62,1.92H64.69 c-1.79,0-3.43-0.74-4.61-1.92h-0.01c-1.18-1.18-1.92-2.82-1.92-4.62V11.19c0-1.8,0.74-3.43,1.92-4.62l0.09-0.08 C61.34,5.35,62.94,4.65,64.69,4.65L64.69,4.65z M107.24,85.97l0.6,0.09l2.54,7.25h1.71l2.52-7.25l0.59-0.09v-1h-2.84v1l0.58,0.1 l-0.37,1.15h-2.7l-0.37-1.15l0.58-0.1v-1h-2.84V85.97L107.24,85.97z M110.26,88.45h1.91l-0.94,2.94h-0.04L110.26,88.45 L110.26,88.45z M65.65,19l0.6-0.09l2.54-7.25h1.71l2.52,7.25L73.61,19v1h-2.84v-1l0.58-0.1l-0.37-1.15h-2.7l-0.37,1.15l0.58,0.1v1 h-2.84V19L65.65,19z M68.68,16.52h1.91l-0.94-2.94h-0.04L68.68,16.52L68.68,16.52z M95.54,67.21l-3.03-6.98 c5.42,5.12,13.69,2.34,13.89-5.65c0.14-5.74-5.34-13.24-16.1-22.94c-10.69,9.7-16.22,17.15-15.64,22.94 c0.71,7.02,7.77,10.22,13.21,5.65l-2.15,6.98H95.54L95.54,67.21z M116.34,7.65H64.69c-0.94,0-1.8,0.37-2.44,0.98l-0.06,0.06 c-0.64,0.64-1.04,1.53-1.04,2.5v82.43c0,0.97,0.4,1.86,1.04,2.5c0.64,0.64,1.53,1.04,2.5,1.04h51.66c0.97,0,1.86-0.4,2.5-1.04 c0.64-0.64,1.04-1.53,1.04-2.5V11.19c0-0.97-0.4-1.86-1.04-2.5C118.2,8.04,117.32,7.65,116.34,7.65L116.34,7.65z M17.18,12.76 l-10.97,19L9.5,44.01L29.44,9.47L17.18,12.76L17.18,12.76z M5.12,27.66l7.98-13.81l-7.47,2c-0.94,0.25-1.69,0.87-2.14,1.65 c-0.45,0.79-0.61,1.75-0.36,2.69L5.12,27.66L5.12,27.66z M33.53,8.38L10.59,48.11l3.29,12.26L45.79,5.09L33.53,8.38L33.53,8.38z"/></g></svg>